# xmcd CD database file
# Copyright (C) 1996 Ti Kan
#
# Track frame offsets:
#	150
#	19795
#	40647
#	64212
#	88322
#	107947
#	124755
#	140545
#	159630
#	181842
#	197745
#	214260
#	231860
# Disc length: 3406 seconds
#
# Revision: 1
# Processed by: cddbd v1.4PL0 Copyright (c) Steve Scherf et al.
# Submitted via: CDCOPY 4.744
#
DISCID=ba0d4c0d
DTITLE=Frontal - The Eyes of a Murder
DYEAR=1900
DGENRE=
TTITLE0=The Eyes of a Murder
TTITLE1=Quicksand in the Clockwork of Life
TTITLE2=If Daddy Is coming Home
TTITLE3=Die in my Arms Tonight
TTITLE4=Cry and laugh about it
TTITLE5=Every Breath
TTITLE6=Your Show
TTITLE7=My great Hate
TTITLE8=A Part of Me
TTITLE9=Kiss my Dick
TTITLE10=Indiarubber
TTITLE11=A loosing Friend
TTITLE12=Sag mir wenn du sterben willst
EXTD=
EXTT0=
EXTT1=
EXTT2=
EXTT3=
EXTT4=
EXTT5=
EXTT6=
EXTT7=
EXTT8=
EXTT9=
EXTT10=
EXTT11=
EXTT12=
PLAYORDER=
